<svg width="13" height="12" viewBox="0 0 13 12" fill="none" xmlns="http://www.w3.org/2000/svg">
<path d="M5.30263 1.56319C5.40718 1.38022 5.25238 1.15792 5.04449 1.19256L4.07277 1.35451C3.92425 1.37927 3.83115 1.52873 3.87441 1.67295L4.17708 2.68183C4.24021 2.89227 4.52459 2.92479 4.6336 2.73403L5.30263 1.56319Z" fill="#FCFCFD"/>
<path d="M3.01684 2.29597C2.9611 2.11018 2.72508 2.05671 2.59849 2.20368C2.20593 2.65944 1.83516 3.13827 1.45122 3.59901C1.42985 3.62465 1.40947 3.65083 1.39006 3.67751C1.28594 3.82065 1.40424 4.00021 1.58124 4.00021H3.1921C3.35957 4.00021 3.47968 3.83878 3.43156 3.67837L3.01684 2.29597Z" fill="#FCFCFD"/>
<path d="M1.50838 5C1.34022 5 1.22082 5.16392 1.30502 5.30947C1.33204 5.35617 1.3618 5.40182 1.39429 5.44612L4.99091 10.3506C5.05104 10.4326 5.11743 10.5064 5.18882 10.5719C5.34414 10.7145 5.53879 10.5502 5.47669 10.3487L3.88281 5.17637C3.8505 5.07152 3.75361 5 3.6439 5H1.50838Z" fill="#FCFCFD"/>
<path d="M6.92396 10.3488C6.86186 10.5503 7.05646 10.7147 7.21181 10.5721C7.28326 10.5065 7.34971 10.4327 7.40991 10.3506L11.0065 5.44612C11.039 5.40182 11.0688 5.35617 11.0958 5.30947C11.18 5.16392 11.0606 5 10.8924 5H8.75686C8.64711 5 8.55021 5.07152 8.51791 5.17637L6.92396 10.3488Z" fill="#FCFCFD"/>
<path d="M10.8191 3.9998C10.9961 3.9998 11.1144 3.82023 11.0103 3.67709C10.9909 3.65041 10.9705 3.62423 10.9491 3.59859C10.5652 3.13783 10.1944 2.65896 9.80181 2.20319C9.67521 2.05622 9.43921 2.10969 9.38346 2.29548L8.96871 3.67796C8.92061 3.83836 9.04071 3.9998 9.20821 3.9998H10.8191Z" fill="#FCFCFD"/>
<path d="M8.32794 1.35453C8.47644 1.37928 8.56954 1.52874 8.52629 1.67296L8.22359 2.68192C8.16049 2.89236 7.87609 2.92487 7.76709 2.73412L7.09799 1.5632C6.99344 1.38022 7.14829 1.15792 7.35614 1.19256L8.32794 1.35453Z" fill="#FCFCFD"/>
<path d="M6.20015 2.00781L7.12485 3.626C7.2201 3.79266 7.09975 4.00003 6.9078 4.00003H5.49255C5.3006 4.00003 5.18026 3.79266 5.2755 3.626L6.20015 2.00781Z" fill="#FCFCFD"/>
<path d="M6.43897 8.52322C6.36657 8.75857 6.03347 8.75857 5.96107 8.52322L4.97656 5.32352C4.92709 5.16277 5.0473 5 5.21552 5H7.18457C7.35277 5 7.47297 5.16277 7.42352 5.32352L6.43897 8.52322Z" fill="#FCFCFD"/>
</svg>
