<svg width="16" height="16" viewBox="0 0 16 16" fill="none" xmlns="http://www.w3.org/2000/svg">
<path d="M8.00016 1.3335C7.63197 1.3335 7.3335 1.63197 7.3335 2.00016V4.00016C7.3335 4.36835 7.63197 4.66683 8.00016 4.66683C8.36835 4.66683 8.66683 4.36835 8.66683 4.00016V2.00016C8.66683 1.63197 8.36835 1.3335 8.00016 1.3335Z" fill="#23262F"/>
<path d="M8.00016 11.3335C7.63197 11.3335 7.3335 11.632 7.3335 12.0002V14.0002C7.3335 14.3684 7.63197 14.6668 8.00016 14.6668C8.36835 14.6668 8.66683 14.3684 8.66683 14.0002V12.0002C8.66683 11.632 8.36835 11.3335 8.00016 11.3335Z" fill="#23262F"/>
<path d="M14.0002 7.3335C14.3684 7.3335 14.6668 7.63197 14.6668 8.00016C14.6668 8.36835 14.3684 8.66683 14.0002 8.66683H12.0002C11.632 8.66683 11.3335 8.36835 11.3335 8.00016C11.3335 7.63197 11.632 7.3335 12.0002 7.3335H14.0002Z" fill="#23262F"/>
<path d="M4.66683 8.00016C4.66683 7.63197 4.36835 7.3335 4.00016 7.3335H2.00016C1.63197 7.3335 1.3335 7.63197 1.3335 8.00016C1.3335 8.36835 1.63197 8.66683 2.00016 8.66683H4.00016C4.36835 8.66683 4.66683 8.36835 4.66683 8.00016Z" fill="#23262F"/>
<path d="M11.7714 3.28618C12.0318 3.02583 12.4539 3.02583 12.7142 3.28618C12.9746 3.54653 12.9746 3.96864 12.7142 4.22899L11.3 5.64321C11.0397 5.90356 10.6176 5.90356 10.3572 5.64321C10.0969 5.38286 10.0969 4.96075 10.3572 4.7004L11.7714 3.28618Z" fill="#23262F"/>
<path d="M5.64312 10.3571C5.38277 10.0968 4.96066 10.0968 4.70031 10.3571L3.28609 11.7714C3.02574 12.0317 3.02574 12.4538 3.28609 12.7142C3.54644 12.9745 3.96855 12.9745 4.2289 12.7142L5.64312 11.3C5.90347 11.0396 5.90347 10.6175 5.64312 10.3571Z" fill="#23262F"/>
<path d="M12.7142 11.7714C12.9746 12.0318 12.9746 12.4539 12.7142 12.7142C12.4539 12.9746 12.0318 12.9746 11.7714 12.7142L10.3572 11.3C10.0969 11.0397 10.0969 10.6176 10.3572 10.3572C10.6176 10.0969 11.0397 10.0969 11.3 10.3572L12.7142 11.7714Z" fill="#23262F"/>
<path d="M5.64318 5.64312C5.90353 5.38277 5.90353 4.96066 5.64318 4.70031L4.22897 3.28609C3.96862 3.02574 3.54651 3.02574 3.28616 3.28609C3.02581 3.54644 3.02581 3.96855 3.28616 4.2289L4.70037 5.64312C4.96072 5.90347 5.38283 5.90347 5.64318 5.64312Z" fill="#23262F"/>
</svg>
